<mxfile host="app.diagrams.net" agent="Mozilla/5.0 (Windows NT 10.0; Win64; x64) AppleWebKit/537.36 (KHTML, like Gecko) Chrome/128.0.0.0 Safari/537.36" version="24.7.6">
  <diagram name="Page-1" id="FcovgrvErsmrd5PYz5vT">
    <mxGraphModel dx="1105" dy="1595" grid="1" gridSize="10" guides="1" tooltips="1" connect="1" arrows="1" fold="1" page="1" pageScale="1" pageWidth="850" pageHeight="1100" math="0" shadow="0">
      <root>
        <mxCell id="0" />
        <mxCell id="1" parent="0" />
        <mxCell id="AQr5LbrtR7CV1ZDABJSb-1" value="" style="strokeWidth=1;shadow=0;dashed=0;align=center;html=1;shape=mxgraph.mockup.graphics.rrect;rSize=0;strokeColor=#999999;" parent="1" vertex="1">
          <mxGeometry x="200" y="-230" width="1840" height="770" as="geometry" />
        </mxCell>
        <mxCell id="AQr5LbrtR7CV1ZDABJSb-2" value="#" style="strokeColor=inherit;fillColor=inherit;gradientColor=inherit;strokeWidth=1;shadow=0;dashed=0;align=center;html=1;shape=mxgraph.mockup.graphics.rrect;rSize=0;fontColor=#666666;" parent="AQr5LbrtR7CV1ZDABJSb-1" vertex="1">
          <mxGeometry width="47.02502283105024" height="133.57142857142858" as="geometry" />
        </mxCell>
        <mxCell id="AQr5LbrtR7CV1ZDABJSb-3" value="Task" style="strokeColor=inherit;fillColor=inherit;gradientColor=inherit;strokeWidth=1;shadow=0;dashed=0;align=center;html=1;shape=mxgraph.mockup.graphics.rrect;rSize=0;fontColor=#666666;" parent="AQr5LbrtR7CV1ZDABJSb-1" vertex="1">
          <mxGeometry x="47.02502283105024" width="154.61881278538814" height="133.57142857142858" as="geometry" />
        </mxCell>
        <mxCell id="AQr5LbrtR7CV1ZDABJSb-4" value="Start" style="strokeColor=inherit;fillColor=inherit;gradientColor=inherit;strokeWidth=1;shadow=0;dashed=0;align=center;html=1;shape=mxgraph.mockup.graphics.rrect;rSize=0;fontColor=#666666;" parent="AQr5LbrtR7CV1ZDABJSb-1" vertex="1">
          <mxGeometry x="201.6438356164384" width="369.6803652968037" height="133.57142857142858" as="geometry" />
        </mxCell>
        <mxCell id="AQr5LbrtR7CV1ZDABJSb-6" value="19/7/2024" style="strokeColor=inherit;fillColor=inherit;gradientColor=inherit;strokeWidth=1;shadow=0;dashed=0;align=center;html=1;shape=mxgraph.mockup.graphics.rrect;rSize=0;fontColor=#666666;" parent="AQr5LbrtR7CV1ZDABJSb-1" vertex="1">
          <mxGeometry x="571.3242009132421" width="601.4615525114156" height="30.745" as="geometry" />
        </mxCell>
        <mxCell id="AQr5LbrtR7CV1ZDABJSb-7" value="21/8/2024" style="strokeColor=inherit;fillColor=inherit;gradientColor=inherit;strokeWidth=1;shadow=0;dashed=0;align=center;html=1;shape=mxgraph.mockup.graphics.rrect;rSize=0;fontColor=#666666;" parent="AQr5LbrtR7CV1ZDABJSb-1" vertex="1">
          <mxGeometry x="1164.5851724137933" width="675.414827586207" height="30.745" as="geometry" />
        </mxCell>
        <mxCell id="AQr5LbrtR7CV1ZDABJSb-8" value="M" style="strokeColor=inherit;fillColor=inherit;gradientColor=inherit;strokeWidth=1;shadow=0;dashed=0;align=center;html=1;shape=mxgraph.mockup.graphics.rrect;rSize=0;;fontColor=#666666;" parent="AQr5LbrtR7CV1ZDABJSb-1" vertex="1">
          <mxGeometry x="571.3242009132421" y="92.22714285714285" width="33.892968036529695" height="43.363571428571426" as="geometry" />
        </mxCell>
        <mxCell id="AQr5LbrtR7CV1ZDABJSb-9" value="T" style="strokeColor=inherit;fillColor=inherit;gradientColor=inherit;strokeWidth=1;shadow=0;dashed=0;align=center;html=1;shape=mxgraph.mockup.graphics.rrect;rSize=0;fontColor=#666666;" parent="AQr5LbrtR7CV1ZDABJSb-1" vertex="1">
          <mxGeometry x="605.2171707777186" y="92.23029625489099" width="37.24413358632113" height="43.363610955841246" as="geometry" />
        </mxCell>
        <mxCell id="AQr5LbrtR7CV1ZDABJSb-10" value="W" style="strokeColor=inherit;fillColor=inherit;gradientColor=inherit;strokeWidth=1;shadow=0;dashed=0;align=center;html=1;shape=mxgraph.mockup.graphics.rrect;rSize=0;fontColor=#666666;" parent="AQr5LbrtR7CV1ZDABJSb-1" vertex="1">
          <mxGeometry x="642.4613043640398" y="92.23029625489099" width="37.24413358632113" height="43.363610955841246" as="geometry" />
        </mxCell>
        <mxCell id="AQr5LbrtR7CV1ZDABJSb-11" value="T" style="strokeColor=inherit;fillColor=inherit;gradientColor=inherit;strokeWidth=1;shadow=0;dashed=0;align=center;html=1;shape=mxgraph.mockup.graphics.rrect;rSize=0;fontColor=#666666;" parent="AQr5LbrtR7CV1ZDABJSb-1" vertex="1">
          <mxGeometry x="679.7077625570778" y="92.22714285714285" width="37.24529680365297" height="41.34428571428571" as="geometry" />
        </mxCell>
        <mxCell id="AQr5LbrtR7CV1ZDABJSb-12" value="F" style="strokeColor=inherit;fillColor=inherit;gradientColor=inherit;strokeWidth=1;shadow=0;dashed=0;align=center;html=1;shape=mxgraph.mockup.graphics.rrect;rSize=0;fontColor=#666666;" parent="AQr5LbrtR7CV1ZDABJSb-1" vertex="1">
          <mxGeometry x="716.9495715366822" y="92.23029625489099" width="37.24413358632113" height="47.114309670206815" as="geometry" />
        </mxCell>
        <mxCell id="AQr5LbrtR7CV1ZDABJSb-13" value="S" style="strokeColor=inherit;fillColor=inherit;gradientColor=inherit;strokeWidth=1;shadow=0;dashed=0;align=center;html=1;shape=mxgraph.mockup.graphics.rrect;rSize=0;fontColor=#666666;" parent="AQr5LbrtR7CV1ZDABJSb-1" vertex="1">
          <mxGeometry x="754.193705123003" y="92.23029625489099" width="37.24413358632113" height="46.115148127445494" as="geometry" />
        </mxCell>
        <mxCell id="AQr5LbrtR7CV1ZDABJSb-14" value="S" style="strokeColor=inherit;fillColor=inherit;gradientColor=inherit;strokeWidth=1;shadow=0;dashed=0;align=center;html=1;shape=mxgraph.mockup.graphics.rrect;rSize=0;fontColor=#666666;" parent="AQr5LbrtR7CV1ZDABJSb-1" vertex="1">
          <mxGeometry x="791.4378387093242" y="92.23029625489099" width="37.24413358632113" height="46.115148127445494" as="geometry" />
        </mxCell>
        <mxCell id="AQr5LbrtR7CV1ZDABJSb-15" value="M" style="strokeColor=inherit;fillColor=inherit;gradientColor=inherit;strokeWidth=1;shadow=0;dashed=0;align=center;html=1;shape=mxgraph.mockup.graphics.rrect;rSize=0;fontColor=#666666;" parent="AQr5LbrtR7CV1ZDABJSb-1" vertex="1">
          <mxGeometry x="1093.115320758525" y="89.8630519843488" width="33.519720227689014" height="50.849636668529904" as="geometry" />
        </mxCell>
        <mxCell id="AQr5LbrtR7CV1ZDABJSb-16" value="T" style="strokeColor=inherit;fillColor=inherit;gradientColor=inherit;strokeWidth=1;shadow=0;dashed=0;align=center;html=1;shape=mxgraph.mockup.graphics.rrect;rSize=0;fontColor=#666666;" parent="AQr5LbrtR7CV1ZDABJSb-1" vertex="1">
          <mxGeometry x="1126.6350409862143" y="92.23029625489099" width="37.24413358632113" height="46.76076020122973" as="geometry" />
        </mxCell>
        <mxCell id="AQr5LbrtR7CV1ZDABJSb-17" value="W" style="strokeColor=inherit;fillColor=inherit;gradientColor=inherit;strokeWidth=1;shadow=0;dashed=0;align=center;html=1;shape=mxgraph.mockup.graphics.rrect;rSize=0;fontColor=#666666;" parent="AQr5LbrtR7CV1ZDABJSb-1" vertex="1">
          <mxGeometry x="1163.8791745725355" y="92.23029625489099" width="37.24413358632113" height="46.115148127445494" as="geometry" />
        </mxCell>
        <mxCell id="AQr5LbrtR7CV1ZDABJSb-18" value="T" style="strokeColor=inherit;fillColor=inherit;gradientColor=inherit;strokeWidth=1;shadow=0;dashed=0;align=center;html=1;shape=mxgraph.mockup.graphics.rrect;rSize=0;fontColor=#666666;" parent="AQr5LbrtR7CV1ZDABJSb-1" vertex="1">
          <mxGeometry x="1201.1233081588566" y="92.23029625489099" width="37.24413358632113" height="48.48239239798769" as="geometry" />
        </mxCell>
        <mxCell id="AQr5LbrtR7CV1ZDABJSb-19" value="F" style="strokeColor=inherit;fillColor=inherit;gradientColor=inherit;strokeWidth=1;shadow=0;dashed=0;align=center;html=1;shape=mxgraph.mockup.graphics.rrect;rSize=0;fontColor=#666666;" parent="AQr5LbrtR7CV1ZDABJSb-1" vertex="1">
          <mxGeometry x="1238.3674417451773" y="93.61375069871437" width="37.24413358632113" height="44.731693683622126" as="geometry" />
        </mxCell>
        <mxCell id="AQr5LbrtR7CV1ZDABJSb-21" value="" style="strokeColor=inherit;fillColor=inherit;gradientColor=inherit;strokeWidth=1;shadow=0;dashed=0;align=center;html=1;shape=mxgraph.mockup.graphics.rrect;rSize=0;fontColor=#666666;" parent="AQr5LbrtR7CV1ZDABJSb-1" vertex="1">
          <mxGeometry x="571.3279310344828" y="135.59071428571428" width="71.08586206896553" height="634.4092857142857" as="geometry" />
        </mxCell>
        <mxCell id="AQr5LbrtR7CV1ZDABJSb-22" value="" style="strokeColor=inherit;fillColor=inherit;gradientColor=inherit;strokeWidth=1;shadow=0;dashed=0;align=center;html=1;shape=mxgraph.mockup.graphics.rrect;rSize=0;fontColor=#666666;" parent="AQr5LbrtR7CV1ZDABJSb-1" vertex="1">
          <mxGeometry x="642.4613793103448" y="135.59071428571428" width="79.26275862068965" height="634.4092857142857" as="geometry" />
        </mxCell>
        <mxCell id="AQr5LbrtR7CV1ZDABJSb-23" value="" style="strokeColor=inherit;fillColor=inherit;gradientColor=inherit;strokeWidth=1;shadow=0;dashed=0;align=center;html=1;shape=mxgraph.mockup.graphics.rrect;rSize=0;fontColor=#666666;" parent="AQr5LbrtR7CV1ZDABJSb-1" vertex="1">
          <mxGeometry x="716.9496551724138" y="135.59071428571428" width="76.15379310344828" height="634.4092857142857" as="geometry" />
        </mxCell>
        <mxCell id="AQr5LbrtR7CV1ZDABJSb-24" value="" style="strokeColor=inherit;fillColor=inherit;gradientColor=inherit;strokeWidth=1;shadow=0;dashed=0;align=center;html=1;shape=mxgraph.mockup.graphics.rrect;rSize=0;fontColor=#666666;" parent="AQr5LbrtR7CV1ZDABJSb-1" vertex="1">
          <mxGeometry x="791.4379310344829" y="135.59071428571428" width="80.97586206896551" height="634.4092857142857" as="geometry" />
        </mxCell>
        <mxCell id="AQr5LbrtR7CV1ZDABJSb-26" value="" style="strokeColor=inherit;fillColor=inherit;gradientColor=inherit;strokeWidth=1;shadow=0;dashed=0;align=center;html=1;shape=mxgraph.mockup.graphics.rrect;rSize=0;fontColor=#666666;" parent="AQr5LbrtR7CV1ZDABJSb-1" vertex="1">
          <mxGeometry x="1238.3675862068967" y="140.71357142857144" width="78.18413793103448" height="629.2864285714286" as="geometry" />
        </mxCell>
        <mxCell id="AQr5LbrtR7CV1ZDABJSb-28" value="" style="strokeWidth=1;shadow=0;dashed=0;align=center;html=1;shape=mxgraph.mockup.graphics.anchor;fontColor=#666666;" parent="AQr5LbrtR7CV1ZDABJSb-1" vertex="1">
          <mxGeometry x="47.02071865273042" y="88.13117197689584" width="94.04143730546085" height="44.06558598844792" as="geometry" />
        </mxCell>
        <mxCell id="AQr5LbrtR7CV1ZDABJSb-29" value="19/7/2024&amp;nbsp;" style="strokeWidth=1;shadow=0;dashed=0;align=center;html=1;shape=mxgraph.mockup.graphics.anchor;fontColor=#666666;" parent="AQr5LbrtR7CV1ZDABJSb-1" vertex="1">
          <mxGeometry x="141.07055778467532" y="141.4261719768959" width="305.63467124274774" height="44.06558598844792" as="geometry" />
        </mxCell>
        <mxCell id="AQr5LbrtR7CV1ZDABJSb-30" value="" style="strokeWidth=1;shadow=0;dashed=0;align=center;html=1;shape=mxgraph.mockup.graphics.anchor;fontColor=#666666;" parent="AQr5LbrtR7CV1ZDABJSb-1" vertex="1">
          <mxGeometry x="446.69682720093886" y="88.13117197689584" width="117.55179663182606" height="44.06558598844792" as="geometry" />
        </mxCell>
        <mxCell id="AQr5LbrtR7CV1ZDABJSb-31" value="1" style="strokeWidth=1;shadow=0;dashed=0;align=center;html=1;shape=mxgraph.mockup.graphics.anchor;fontColor=#666666;" parent="AQr5LbrtR7CV1ZDABJSb-1" vertex="1">
          <mxGeometry x="0.008401826484018266" y="143.21247225105805" width="47.02071865273042" height="44.06558598844792" as="geometry" />
        </mxCell>
        <mxCell id="AQr5LbrtR7CV1ZDABJSb-32" value="Task 1" style="strokeWidth=1;shadow=0;dashed=0;align=center;html=1;shape=mxgraph.mockup.graphics.anchor;fontColor=#666666;" parent="AQr5LbrtR7CV1ZDABJSb-1" vertex="1">
          <mxGeometry x="44.53377801346101" y="143.21247225105805" width="94.04143730546085" height="44.06558598844792" as="geometry" />
        </mxCell>
        <mxCell id="AQr5LbrtR7CV1ZDABJSb-33" value="" style="strokeWidth=1;shadow=0;dashed=0;align=center;html=1;shape=mxgraph.mockup.graphics.anchor;fontColor=#666666;" parent="AQr5LbrtR7CV1ZDABJSb-1" vertex="1">
          <mxGeometry x="141.06215595819128" y="132.19675796534378" width="305.63467124274774" height="44.06558598844792" as="geometry" />
        </mxCell>
        <mxCell id="AQr5LbrtR7CV1ZDABJSb-35" value="2" style="strokeWidth=1;shadow=0;dashed=0;align=center;html=1;shape=mxgraph.mockup.graphics.anchor;fontColor=#666666;" parent="AQr5LbrtR7CV1ZDABJSb-1" vertex="1">
          <mxGeometry y="187.27805823950598" width="47.02071865273042" height="44.06558598844792" as="geometry" />
        </mxCell>
        <mxCell id="AQr5LbrtR7CV1ZDABJSb-36" value="Task 2" style="strokeWidth=1;shadow=0;dashed=0;align=center;html=1;shape=mxgraph.mockup.graphics.anchor;fontColor=#666666;" parent="AQr5LbrtR7CV1ZDABJSb-1" vertex="1">
          <mxGeometry x="47.02071865273042" y="187.27805823950598" width="94.04143730546085" height="44.06558598844792" as="geometry" />
        </mxCell>
        <mxCell id="AQr5LbrtR7CV1ZDABJSb-37" value="19/7/2024&amp;nbsp;" style="strokeWidth=1;shadow=0;dashed=0;align=center;html=1;shape=mxgraph.mockup.graphics.anchor;fontColor=#666666;" parent="AQr5LbrtR7CV1ZDABJSb-1" vertex="1">
          <mxGeometry x="141.05375413170725" y="187.27805823950592" width="305.63467124274774" height="44.06558598844792" as="geometry" />
        </mxCell>
        <mxCell id="AQr5LbrtR7CV1ZDABJSb-39" value="3" style="strokeWidth=1;shadow=0;dashed=0;align=center;html=1;shape=mxgraph.mockup.graphics.anchor;fontColor=#666666;" parent="AQr5LbrtR7CV1ZDABJSb-1" vertex="1">
          <mxGeometry x="0.008401826484018266" y="235.7122156565253" width="47.02071865273042" height="44.06558598844792" as="geometry" />
        </mxCell>
        <mxCell id="AQr5LbrtR7CV1ZDABJSb-40" value="Task 3" style="strokeWidth=1;shadow=0;dashed=0;align=center;html=1;shape=mxgraph.mockup.graphics.anchor;fontColor=#666666;" parent="AQr5LbrtR7CV1ZDABJSb-1" vertex="1">
          <mxGeometry x="47.02912047921443" y="231.343644227954" width="94.04143730546085" height="44.06558598844792" as="geometry" />
        </mxCell>
        <mxCell id="AQr5LbrtR7CV1ZDABJSb-41" value="19/7/2024&amp;nbsp;" style="strokeWidth=1;shadow=0;dashed=0;align=center;html=1;shape=mxgraph.mockup.graphics.anchor;fontColor=#666666;" parent="AQr5LbrtR7CV1ZDABJSb-1" vertex="1">
          <mxGeometry x="141.07055778467532" y="231.34364422795394" width="305.63467124274774" height="44.06558598844792" as="geometry" />
        </mxCell>
        <mxCell id="AQr5LbrtR7CV1ZDABJSb-43" value="" style="strokeWidth=1;shadow=0;dashed=0;align=center;html=1;shape=mxgraph.mockup.graphics.rrect;rSize=0;strokeColor=none;fillColor=#aaddff;" parent="AQr5LbrtR7CV1ZDABJSb-1" vertex="1">
          <mxGeometry x="571.33" y="163.46" width="258.68" height="22.03" as="geometry" />
        </mxCell>
        <mxCell id="AQr5LbrtR7CV1ZDABJSb-44" value="" style="strokeWidth=1;shadow=0;dashed=0;align=center;html=1;shape=mxgraph.mockup.graphics.rrect;rSize=0;strokeColor=none;fillColor=#aaddff;" parent="AQr5LbrtR7CV1ZDABJSb-1" vertex="1">
          <mxGeometry x="913.0920689655172" y="386.53999999999996" width="117.94241379310346" height="22.03142857142857" as="geometry" />
        </mxCell>
        <mxCell id="AQr5LbrtR7CV1ZDABJSb-48" value="Week 1" style="text;html=1;strokeColor=none;fillColor=none;align=center;verticalAlign=middle;whiteSpace=wrap;rounded=0;" parent="AQr5LbrtR7CV1ZDABJSb-1" vertex="1">
          <mxGeometry x="605.2171707777186" y="38.629122414756836" width="55.86620037948169" height="46.115148127445494" as="geometry" />
        </mxCell>
        <mxCell id="AQr5LbrtR7CV1ZDABJSb-50" value="Week 1" style="strokeColor=inherit;fillColor=inherit;gradientColor=inherit;strokeWidth=1;shadow=0;dashed=0;align=center;html=1;shape=mxgraph.mockup.graphics.rrect;rSize=0;fontColor=#666666;" parent="AQr5LbrtR7CV1ZDABJSb-1" vertex="1">
          <mxGeometry x="571.3242009132421" y="30.745" width="257.3647488584475" height="61.49" as="geometry" />
        </mxCell>
        <mxCell id="AQr5LbrtR7CV1ZDABJSb-51" value="Week 2" style="strokeColor=inherit;fillColor=inherit;gradientColor=inherit;strokeWidth=1;shadow=0;dashed=0;align=center;html=1;shape=mxgraph.mockup.graphics.rrect;rSize=0;fontColor=#666666;" parent="AQr5LbrtR7CV1ZDABJSb-1" vertex="1">
          <mxGeometry x="828.681972295645" y="30.94326439351592" width="264.43334846287996" height="61.48686416992733" as="geometry" />
        </mxCell>
        <mxCell id="AQr5LbrtR7CV1ZDABJSb-52" value="M" style="strokeColor=inherit;fillColor=inherit;gradientColor=inherit;strokeWidth=1;shadow=0;dashed=0;align=center;html=1;shape=mxgraph.mockup.graphics.rrect;rSize=0;;fontColor=#666666;" parent="AQr5LbrtR7CV1ZDABJSb-1" vertex="1">
          <mxGeometry x="828.681972295645" y="92.23029625489099" width="40.968546944953225" height="43.363610955841246" as="geometry" />
        </mxCell>
        <mxCell id="AQr5LbrtR7CV1ZDABJSb-53" value="T" style="strokeColor=inherit;fillColor=inherit;gradientColor=inherit;strokeWidth=1;shadow=0;dashed=0;align=center;html=1;shape=mxgraph.mockup.graphics.rrect;rSize=0;fontColor=#666666;" parent="AQr5LbrtR7CV1ZDABJSb-1" vertex="1">
          <mxGeometry x="869.6505192405983" y="92.23029625489099" width="37.24413358632113" height="43.363610955841246" as="geometry" />
        </mxCell>
        <mxCell id="AQr5LbrtR7CV1ZDABJSb-54" value="W" style="strokeColor=inherit;fillColor=inherit;gradientColor=inherit;strokeWidth=1;shadow=0;dashed=0;align=center;html=1;shape=mxgraph.mockup.graphics.rrect;rSize=0;fontColor=#666666;" parent="AQr5LbrtR7CV1ZDABJSb-1" vertex="1">
          <mxGeometry x="906.8946528269195" y="92.43012856344328" width="37.24413358632113" height="43.363610955841246" as="geometry" />
        </mxCell>
        <mxCell id="AQr5LbrtR7CV1ZDABJSb-55" value="T" style="strokeColor=inherit;fillColor=inherit;gradientColor=inherit;strokeWidth=1;shadow=0;dashed=0;align=center;html=1;shape=mxgraph.mockup.graphics.rrect;rSize=0;fontColor=#666666;" parent="AQr5LbrtR7CV1ZDABJSb-1" vertex="1">
          <mxGeometry x="944.1387864132405" y="93.61375069871437" width="37.24413358632113" height="44.731693683622126" as="geometry" />
        </mxCell>
        <mxCell id="AQr5LbrtR7CV1ZDABJSb-56" value="F" style="strokeColor=inherit;fillColor=inherit;gradientColor=inherit;strokeWidth=1;shadow=0;dashed=0;align=center;html=1;shape=mxgraph.mockup.graphics.rrect;rSize=0;fontColor=#666666;" parent="AQr5LbrtR7CV1ZDABJSb-1" vertex="1">
          <mxGeometry x="981.3829199995618" y="92.61458915595303" width="37.24413358632113" height="47.114309670206815" as="geometry" />
        </mxCell>
        <mxCell id="AQr5LbrtR7CV1ZDABJSb-57" value="S" style="strokeColor=inherit;fillColor=inherit;gradientColor=inherit;strokeWidth=1;shadow=0;dashed=0;align=center;html=1;shape=mxgraph.mockup.graphics.rrect;rSize=0;fontColor=#666666;" parent="AQr5LbrtR7CV1ZDABJSb-1" vertex="1">
          <mxGeometry x="1018.6270535858829" y="93.61375069871437" width="37.24413358632113" height="46.115148127445494" as="geometry" />
        </mxCell>
        <mxCell id="AQr5LbrtR7CV1ZDABJSb-58" value="S" style="strokeColor=inherit;fillColor=inherit;gradientColor=inherit;strokeWidth=1;shadow=0;dashed=0;align=center;html=1;shape=mxgraph.mockup.graphics.rrect;rSize=0;fontColor=#666666;" parent="AQr5LbrtR7CV1ZDABJSb-1" vertex="1">
          <mxGeometry x="1055.8711871722041" y="93.61375069871437" width="37.24413358632113" height="46.115148127445494" as="geometry" />
        </mxCell>
        <mxCell id="AQr5LbrtR7CV1ZDABJSb-62" value="" style="strokeColor=inherit;fillColor=inherit;gradientColor=inherit;strokeWidth=1;shadow=0;dashed=0;align=center;html=1;shape=mxgraph.mockup.graphics.rrect;rSize=0;fontColor=#666666;" parent="AQr5LbrtR7CV1ZDABJSb-1" vertex="1">
          <mxGeometry x="944.1420689655173" y="138.34857142857143" width="78.96137931034482" height="631.6514285714285" as="geometry" />
        </mxCell>
        <mxCell id="AQr5LbrtR7CV1ZDABJSb-66" value="" style="strokeColor=inherit;fillColor=inherit;gradientColor=inherit;strokeWidth=1;shadow=0;dashed=0;align=center;html=1;shape=mxgraph.mockup.graphics.rrect;rSize=0;fontColor=#666666;" parent="AQr5LbrtR7CV1ZDABJSb-1" vertex="1">
          <mxGeometry x="869.6458620689656" y="135.79500000000002" width="74.14724137931036" height="634.2049999999999" as="geometry" />
        </mxCell>
        <mxCell id="AQr5LbrtR7CV1ZDABJSb-67" value="" style="strokeColor=inherit;fillColor=inherit;gradientColor=inherit;strokeWidth=1;shadow=0;dashed=0;align=center;html=1;shape=mxgraph.mockup.graphics.rrect;rSize=0;fontColor=#666666;" parent="AQr5LbrtR7CV1ZDABJSb-1" vertex="1">
          <mxGeometry x="1018.6303448275862" y="138.34857142857143" width="75.85241379310345" height="631.6514285714285" as="geometry" />
        </mxCell>
        <mxCell id="AQr5LbrtR7CV1ZDABJSb-69" value="" style="strokeColor=inherit;fillColor=inherit;gradientColor=inherit;strokeWidth=1;shadow=0;dashed=0;align=center;html=1;shape=mxgraph.mockup.graphics.rrect;rSize=0;fontColor=#666666;" parent="AQr5LbrtR7CV1ZDABJSb-1" vertex="1">
          <mxGeometry x="1163.8793103448277" y="139.73142857142858" width="73.36206896551725" height="630.2685714285714" as="geometry" />
        </mxCell>
        <mxCell id="AQr5LbrtR7CV1ZDABJSb-71" value="S" style="strokeColor=inherit;fillColor=inherit;gradientColor=inherit;strokeWidth=1;shadow=0;dashed=0;align=center;html=1;shape=mxgraph.mockup.graphics.rrect;rSize=0;fontColor=#666666;" parent="AQr5LbrtR7CV1ZDABJSb-1" vertex="1">
          <mxGeometry x="1312.8557089178196" y="94.5975405254332" width="37.24413358632113" height="46.115148127445494" as="geometry" />
        </mxCell>
        <mxCell id="AQr5LbrtR7CV1ZDABJSb-72" value="S" style="strokeColor=inherit;fillColor=inherit;gradientColor=inherit;strokeWidth=1;shadow=0;dashed=0;align=center;html=1;shape=mxgraph.mockup.graphics.rrect;rSize=0;fontColor=#666666;" parent="AQr5LbrtR7CV1ZDABJSb-1" vertex="1">
          <mxGeometry x="1275.6115753314984" y="94.5975405254332" width="37.24413358632113" height="46.115148127445494" as="geometry" />
        </mxCell>
        <mxCell id="AQr5LbrtR7CV1ZDABJSb-74" value="" style="strokeColor=inherit;fillColor=inherit;gradientColor=inherit;strokeWidth=1;shadow=0;dashed=0;align=center;html=1;shape=mxgraph.mockup.graphics.rrect;rSize=0;fontColor=#666666;" parent="AQr5LbrtR7CV1ZDABJSb-1" vertex="1">
          <mxGeometry x="1312.8558620689657" y="142.48142857142858" width="75.07517241379311" height="627.5185714285714" as="geometry" />
        </mxCell>
        <mxCell id="AQr5LbrtR7CV1ZDABJSb-75" value="Week 3" style="strokeColor=inherit;fillColor=inherit;gradientColor=inherit;strokeWidth=1;shadow=0;dashed=0;align=center;html=1;shape=mxgraph.mockup.graphics.rrect;rSize=0;fontColor=#666666;" parent="AQr5LbrtR7CV1ZDABJSb-1" vertex="1">
          <mxGeometry x="1093.115320758525" y="30.743432084963665" width="256.9845217456158" height="61.48686416992733" as="geometry" />
        </mxCell>
        <mxCell id="AQr5LbrtR7CV1ZDABJSb-76" value="Week 4" style="strokeColor=inherit;fillColor=inherit;gradientColor=inherit;strokeWidth=1;shadow=0;dashed=0;align=center;html=1;shape=mxgraph.mockup.graphics.rrect;rSize=0;fontColor=#666666;" parent="AQr5LbrtR7CV1ZDABJSb-1" vertex="1">
          <mxGeometry x="1350.1000000000004" y="30.743432084963665" width="257.35083333333347" height="63.85410844046952" as="geometry" />
        </mxCell>
        <mxCell id="AQr5LbrtR7CV1ZDABJSb-65" value="Week 5" style="strokeColor=inherit;fillColor=inherit;gradientColor=inherit;strokeWidth=1;shadow=0;dashed=0;align=center;html=1;shape=mxgraph.mockup.graphics.rrect;rSize=0;fontColor=#666666;" parent="AQr5LbrtR7CV1ZDABJSb-1" vertex="1">
          <mxGeometry x="1607.4541379310344" y="30.745" width="232.54586206896553" height="63.855" as="geometry" />
        </mxCell>
        <mxCell id="AQr5LbrtR7CV1ZDABJSb-77" value="M" style="strokeColor=inherit;fillColor=inherit;gradientColor=inherit;strokeWidth=1;shadow=0;dashed=0;align=center;html=1;shape=mxgraph.mockup.graphics.rrect;rSize=0;fontColor=#666666;" parent="AQr5LbrtR7CV1ZDABJSb-1" vertex="1">
          <mxGeometry x="1350.096053130084" y="96.3652878703186" width="35.92164204051615" height="46.115148127445494" as="geometry" />
        </mxCell>
        <mxCell id="AQr5LbrtR7CV1ZDABJSb-78" value="T" style="strokeColor=inherit;fillColor=inherit;gradientColor=inherit;strokeWidth=1;shadow=0;dashed=0;align=center;html=1;shape=mxgraph.mockup.graphics.rrect;rSize=0;fontColor=#666666;" parent="AQr5LbrtR7CV1ZDABJSb-1" vertex="1">
          <mxGeometry x="1387.3398077789996" y="96.3652878703186" width="37.24413358632113" height="46.115148127445494" as="geometry" />
        </mxCell>
        <mxCell id="AQr5LbrtR7CV1ZDABJSb-79" value="W" style="strokeColor=inherit;fillColor=inherit;gradientColor=inherit;strokeWidth=1;shadow=0;dashed=0;align=center;html=1;shape=mxgraph.mockup.graphics.rrect;rSize=0;fontColor=#666666;" parent="AQr5LbrtR7CV1ZDABJSb-1" vertex="1">
          <mxGeometry x="1424.5818572095895" y="96.36528787031862" width="37.24413358632113" height="46.115148127445494" as="geometry" />
        </mxCell>
        <mxCell id="AQr5LbrtR7CV1ZDABJSb-80" value="T" style="strokeColor=inherit;fillColor=inherit;gradientColor=inherit;strokeWidth=1;shadow=0;dashed=0;align=center;html=1;shape=mxgraph.mockup.graphics.rrect;rSize=0;fontColor=#666666;" parent="AQr5LbrtR7CV1ZDABJSb-1" vertex="1">
          <mxGeometry x="1461.82390664018" y="96.3652878703186" width="37.24413358632113" height="46.115148127445494" as="geometry" />
        </mxCell>
        <mxCell id="AQr5LbrtR7CV1ZDABJSb-81" value="F" style="strokeColor=inherit;fillColor=inherit;gradientColor=inherit;strokeWidth=1;shadow=0;dashed=0;align=center;html=1;shape=mxgraph.mockup.graphics.rrect;rSize=0;fontColor=#666666;" parent="AQr5LbrtR7CV1ZDABJSb-1" vertex="1">
          <mxGeometry x="1499.0659560707695" y="96.3652878703186" width="37.24413358632113" height="46.115148127445494" as="geometry" />
        </mxCell>
        <mxCell id="AQr5LbrtR7CV1ZDABJSb-82" value="S" style="strokeColor=inherit;fillColor=inherit;gradientColor=inherit;strokeWidth=1;shadow=0;dashed=0;align=center;html=1;shape=mxgraph.mockup.graphics.rrect;rSize=0;fontColor=#666666;" parent="AQr5LbrtR7CV1ZDABJSb-1" vertex="1">
          <mxGeometry x="1536.3080055013593" y="96.36528787031862" width="37.24413358632113" height="46.115148127445494" as="geometry" />
        </mxCell>
        <mxCell id="AQr5LbrtR7CV1ZDABJSb-83" value="S" style="strokeColor=inherit;fillColor=inherit;gradientColor=inherit;strokeWidth=1;shadow=0;dashed=0;align=center;html=1;shape=mxgraph.mockup.graphics.rrect;rSize=0;fontColor=#666666;" parent="AQr5LbrtR7CV1ZDABJSb-1" vertex="1">
          <mxGeometry x="1573.548349713624" y="96.3652878703186" width="33.904125158788524" height="46.115148127445494" as="geometry" />
        </mxCell>
        <mxCell id="AQr5LbrtR7CV1ZDABJSb-85" value="" style="strokeColor=inherit;fillColor=inherit;gradientColor=inherit;strokeWidth=1;shadow=0;dashed=0;align=center;html=1;shape=mxgraph.mockup.graphics.rrect;rSize=0;fontColor=#666666;" parent="AQr5LbrtR7CV1ZDABJSb-1" vertex="1">
          <mxGeometry x="1387.3441379310345" y="142.48142857142858" width="79.89724137931036" height="627.5185714285714" as="geometry" />
        </mxCell>
        <mxCell id="AQr5LbrtR7CV1ZDABJSb-87" value="" style="strokeColor=inherit;fillColor=inherit;gradientColor=inherit;strokeWidth=1;shadow=0;dashed=0;align=center;html=1;shape=mxgraph.mockup.graphics.rrect;rSize=0;fontColor=#666666;" parent="AQr5LbrtR7CV1ZDABJSb-1" vertex="1">
          <mxGeometry x="1461.824482758621" y="142.48142857142858" width="76.79620689655172" height="627.5185714285714" as="geometry" />
        </mxCell>
        <mxCell id="AQr5LbrtR7CV1ZDABJSb-89" value="" style="strokeColor=inherit;fillColor=inherit;gradientColor=inherit;strokeWidth=1;shadow=0;dashed=0;align=center;html=1;shape=mxgraph.mockup.graphics.rrect;rSize=0;fontColor=#666666;" parent="AQr5LbrtR7CV1ZDABJSb-1" vertex="1">
          <mxGeometry x="1536.304827586207" y="142.48142857142858" width="73.6951724137931" height="627.5185714285714" as="geometry" />
        </mxCell>
        <mxCell id="AQr5LbrtR7CV1ZDABJSb-91" value="W" style="strokeColor=inherit;fillColor=inherit;gradientColor=inherit;strokeWidth=1;shadow=0;dashed=0;align=center;html=1;shape=mxgraph.mockup.graphics.rrect;rSize=0;fontColor=#666666;" parent="AQr5LbrtR7CV1ZDABJSb-1" vertex="1">
          <mxGeometry x="1679.2957589534446" y="96.3652878703186" width="35.92164204051615" height="46.115148127445494" as="geometry" />
        </mxCell>
        <mxCell id="AQr5LbrtR7CV1ZDABJSb-92" value="T" style="strokeColor=inherit;fillColor=inherit;gradientColor=inherit;strokeWidth=1;shadow=0;dashed=0;align=center;html=1;shape=mxgraph.mockup.graphics.rrect;rSize=0;fontColor=#666666;" parent="AQr5LbrtR7CV1ZDABJSb-1" vertex="1">
          <mxGeometry x="1643.374116912929" y="96.3652878703186" width="35.92164204051615" height="46.115148127445494" as="geometry" />
        </mxCell>
        <mxCell id="AQr5LbrtR7CV1ZDABJSb-93" value="M" style="strokeColor=inherit;fillColor=inherit;gradientColor=inherit;strokeWidth=1;shadow=0;dashed=0;align=center;html=1;shape=mxgraph.mockup.graphics.rrect;rSize=0;fontColor=#666666;" parent="AQr5LbrtR7CV1ZDABJSb-1" vertex="1">
          <mxGeometry x="1607.4524748724123" y="96.3652878703186" width="35.92164204051615" height="46.115148127445494" as="geometry" />
        </mxCell>
        <mxCell id="AQr5LbrtR7CV1ZDABJSb-94" value="F" style="strokeColor=inherit;fillColor=inherit;gradientColor=inherit;strokeWidth=1;shadow=0;dashed=0;align=center;html=1;shape=mxgraph.mockup.graphics.rrect;rSize=0;fontColor=#666666;" parent="AQr5LbrtR7CV1ZDABJSb-1" vertex="1">
          <mxGeometry x="1751.1406896551728" y="96.36785714285715" width="88.85931034482759" height="46.113571428571426" as="geometry" />
        </mxCell>
        <mxCell id="AQr5LbrtR7CV1ZDABJSb-95" value="T" style="strokeColor=inherit;fillColor=inherit;gradientColor=inherit;strokeWidth=1;shadow=0;dashed=0;align=center;html=1;shape=mxgraph.mockup.graphics.rrect;rSize=0;fontColor=#666666;" parent="AQr5LbrtR7CV1ZDABJSb-1" vertex="1">
          <mxGeometry x="1715.217400993961" y="96.3652878703186" width="35.92164204051615" height="46.115148127445494" as="geometry" />
        </mxCell>
        <mxCell id="AQr5LbrtR7CV1ZDABJSb-96" value="" style="strokeColor=inherit;fillColor=inherit;gradientColor=inherit;strokeWidth=1;shadow=0;dashed=0;align=center;html=1;shape=mxgraph.mockup.graphics.rrect;rSize=0;fontColor=#666666;" parent="AQr5LbrtR7CV1ZDABJSb-1" vertex="1">
          <mxGeometry x="1681.276206896552" y="142.48142857142858" width="71.48241379310345" height="627.5185714285714" as="geometry" />
        </mxCell>
        <mxCell id="AQr5LbrtR7CV1ZDABJSb-99" value="" style="strokeColor=inherit;fillColor=inherit;gradientColor=inherit;strokeWidth=1;shadow=0;dashed=0;align=center;html=1;shape=mxgraph.mockup.graphics.rrect;rSize=0;fontColor=#666666;" parent="AQr5LbrtR7CV1ZDABJSb-1" vertex="1">
          <mxGeometry x="1752.116206896552" y="142.48142857142858" width="87.88379310344828" height="627.5185714285714" as="geometry" />
        </mxCell>
        <mxCell id="AQr5LbrtR7CV1ZDABJSb-100" value="" style="strokeColor=inherit;fillColor=inherit;gradientColor=inherit;strokeWidth=1;shadow=0;dashed=0;align=center;html=1;shape=mxgraph.mockup.graphics.rrect;rSize=0;fontColor=#666666;" parent="AQr5LbrtR7CV1ZDABJSb-1" vertex="1">
          <mxGeometry x="1093.1186206896552" y="141.09857142857146" width="72.74344827586208" height="628.9014285714285" as="geometry" />
        </mxCell>
        <mxCell id="AQr5LbrtR7CV1ZDABJSb-101" value="Task 4" style="strokeWidth=1;shadow=0;dashed=0;align=center;html=1;shape=mxgraph.mockup.graphics.anchor;fontColor=#666666;" parent="AQr5LbrtR7CV1ZDABJSb-1" vertex="1">
          <mxGeometry x="47.02912047921443" y="275.40650137081116" width="94.04143730546085" height="44.06558598844792" as="geometry" />
        </mxCell>
        <mxCell id="AQr5LbrtR7CV1ZDABJSb-103" value="Task 5" style="strokeWidth=1;shadow=0;dashed=0;align=center;html=1;shape=mxgraph.mockup.graphics.anchor;fontColor=#666666;" parent="AQr5LbrtR7CV1ZDABJSb-1" vertex="1">
          <mxGeometry x="47.029120479214434" y="319.4693585136683" width="94.04143730546085" height="44.06558598844792" as="geometry" />
        </mxCell>
        <mxCell id="AQr5LbrtR7CV1ZDABJSb-104" value="Task 6" style="strokeWidth=1;shadow=0;dashed=0;align=center;html=1;shape=mxgraph.mockup.graphics.anchor;fontColor=#666666;" parent="AQr5LbrtR7CV1ZDABJSb-1" vertex="1">
          <mxGeometry x="47.0123168262464" y="364.5065013708111" width="94.04143730546085" height="44.06558598844792" as="geometry" />
        </mxCell>
        <mxCell id="AQr5LbrtR7CV1ZDABJSb-106" value="Task 7" style="strokeWidth=1;shadow=0;dashed=0;align=center;html=1;shape=mxgraph.mockup.graphics.anchor;fontColor=#666666;" parent="AQr5LbrtR7CV1ZDABJSb-1" vertex="1">
          <mxGeometry x="47.029120479214434" y="408.56935851366825" width="94.04143730546085" height="44.06558598844792" as="geometry" />
        </mxCell>
        <mxCell id="AQr5LbrtR7CV1ZDABJSb-108" value="4" style="strokeWidth=1;shadow=0;dashed=0;align=center;html=1;shape=mxgraph.mockup.graphics.anchor;fontColor=#666666;" parent="AQr5LbrtR7CV1ZDABJSb-1" vertex="1">
          <mxGeometry x="8.401826484018267" y="278.08000000000004" width="33.60730593607307" height="44.06285714285714" as="geometry" />
        </mxCell>
        <mxCell id="AQr5LbrtR7CV1ZDABJSb-112" value="5" style="strokeWidth=1;shadow=0;dashed=0;align=center;html=1;shape=mxgraph.mockup.graphics.anchor;fontColor=#666666;" parent="AQr5LbrtR7CV1ZDABJSb-1" vertex="1">
          <mxGeometry x="8.401826484018267" y="322.1428571428571" width="33.60730593607307" height="44.06285714285714" as="geometry" />
        </mxCell>
        <mxCell id="AQr5LbrtR7CV1ZDABJSb-215" value="6" style="strokeWidth=1;shadow=0;dashed=0;align=center;html=1;shape=mxgraph.mockup.graphics.anchor;fontColor=#666666;" parent="AQr5LbrtR7CV1ZDABJSb-1" vertex="1">
          <mxGeometry x="14.677990867579908" y="362.9685714285714" width="28.591415525114158" height="44.06285714285714" as="geometry" />
        </mxCell>
        <mxCell id="AQr5LbrtR7CV1ZDABJSb-217" value="7" style="strokeWidth=1;shadow=0;dashed=0;align=center;html=1;shape=mxgraph.mockup.graphics.anchor;fontColor=#666666;" parent="AQr5LbrtR7CV1ZDABJSb-1" vertex="1">
          <mxGeometry x="15.938264840182649" y="403.7942857142857" width="26.070867579908683" height="44.06285714285714" as="geometry" />
        </mxCell>
        <mxCell id="AQr5LbrtR7CV1ZDABJSb-220" value="" style="strokeWidth=1;shadow=0;dashed=0;align=center;html=1;shape=mxgraph.mockup.graphics.anchor;fontColor=#666666;" parent="AQr5LbrtR7CV1ZDABJSb-1" vertex="1">
          <mxGeometry x="18.433607305936075" y="447.85714285714283" width="23.575525114155255" height="44.06285714285714" as="geometry" />
        </mxCell>
        <mxCell id="AQr5LbrtR7CV1ZDABJSb-221" value="19/7/2024&amp;nbsp;" style="strokeWidth=1;shadow=0;dashed=0;align=center;html=1;shape=mxgraph.mockup.graphics.anchor;fontColor=#666666;" parent="AQr5LbrtR7CV1ZDABJSb-1" vertex="1">
          <mxGeometry x="141.05375413170728" y="275.4065013708111" width="305.63467124274774" height="44.06558598844792" as="geometry" />
        </mxCell>
        <mxCell id="AQr5LbrtR7CV1ZDABJSb-222" value="19/7/2024&amp;nbsp;" style="strokeWidth=1;shadow=0;dashed=0;align=center;html=1;shape=mxgraph.mockup.graphics.anchor;fontColor=#666666;" parent="AQr5LbrtR7CV1ZDABJSb-1" vertex="1">
          <mxGeometry x="138.57521531892192" y="319.4693585136682" width="305.63467124274774" height="44.06558598844792" as="geometry" />
        </mxCell>
        <mxCell id="AQr5LbrtR7CV1ZDABJSb-223" value="19/7/2024&amp;nbsp;" style="strokeWidth=1;shadow=0;dashed=0;align=center;html=1;shape=mxgraph.mockup.graphics.anchor;fontColor=#666666;" parent="AQr5LbrtR7CV1ZDABJSb-1" vertex="1">
          <mxGeometry x="138.57521531892192" y="363.53221565652535" width="305.63467124274774" height="44.06558598844792" as="geometry" />
        </mxCell>
        <mxCell id="AQr5LbrtR7CV1ZDABJSb-224" value="19/7/2024&amp;nbsp;" style="strokeWidth=1;shadow=0;dashed=0;align=center;html=1;shape=mxgraph.mockup.graphics.anchor;fontColor=#666666;" parent="AQr5LbrtR7CV1ZDABJSb-1" vertex="1">
          <mxGeometry x="138.63402810431003" y="407.59507279938254" width="305.63467124274774" height="44.06558598844792" as="geometry" />
        </mxCell>
        <mxCell id="AQr5LbrtR7CV1ZDABJSb-225" value="" style="strokeWidth=1;shadow=0;dashed=0;align=center;html=1;shape=mxgraph.mockup.graphics.anchor;fontColor=#666666;" parent="AQr5LbrtR7CV1ZDABJSb-1" vertex="1">
          <mxGeometry x="138.57521531892192" y="447.8550727993825" width="305.63467124274774" height="44.06558598844792" as="geometry" />
        </mxCell>
        <mxCell id="AQr5LbrtR7CV1ZDABJSb-235" value="" style="strokeWidth=1;shadow=0;dashed=0;align=center;html=1;shape=mxgraph.mockup.graphics.anchor;fontColor=#666666;" parent="AQr5LbrtR7CV1ZDABJSb-1" vertex="1">
          <mxGeometry x="138.57521531892192" y="487.1407870850968" width="305.63467124274774" height="44.06558598844792" as="geometry" />
        </mxCell>
        <mxCell id="AQr5LbrtR7CV1ZDABJSb-242" value="" style="strokeWidth=1;shadow=0;dashed=0;align=center;html=1;shape=mxgraph.mockup.graphics.anchor;fontColor=#666666;" parent="AQr5LbrtR7CV1ZDABJSb-1" vertex="1">
          <mxGeometry x="138.57521531892192" y="526.4265013708111" width="305.63467124274774" height="44.06558598844792" as="geometry" />
        </mxCell>
        <mxCell id="AQr5LbrtR7CV1ZDABJSb-244" value="" style="strokeWidth=1;shadow=0;dashed=0;align=center;html=1;shape=mxgraph.mockup.graphics.anchor;fontColor=#666666;" parent="AQr5LbrtR7CV1ZDABJSb-1" vertex="1">
          <mxGeometry x="138.63402810431003" y="649.0607870850969" width="305.63467124274774" height="44.06558598844792" as="geometry" />
        </mxCell>
        <mxCell id="AQr5LbrtR7CV1ZDABJSb-252" value="" style="strokeColor=inherit;fillColor=inherit;gradientColor=inherit;strokeWidth=1;shadow=0;dashed=0;align=center;html=1;shape=mxgraph.mockup.graphics.rrect;rSize=0;fontColor=#666666;" parent="AQr5LbrtR7CV1ZDABJSb-1" vertex="1">
          <mxGeometry x="1607.4541379310344" y="143.21214285714285" width="73.9251724137931" height="626.7878571428572" as="geometry" />
        </mxCell>
        <mxCell id="AQr5LbrtR7CV1ZDABJSb-253" value="" style="strokeWidth=1;shadow=0;dashed=0;align=center;html=1;shape=mxgraph.mockup.graphics.rrect;rSize=0;strokeColor=none;fillColor=#aaddff;" parent="AQr5LbrtR7CV1ZDABJSb-1" vertex="1">
          <mxGeometry x="869.65" y="208" width="217.59" height="22.03" as="geometry" />
        </mxCell>
        <mxCell id="AQr5LbrtR7CV1ZDABJSb-254" value="" style="strokeWidth=1;shadow=0;dashed=0;align=center;html=1;shape=mxgraph.mockup.graphics.rrect;rSize=0;strokeColor=none;fillColor=#aaddff;" parent="AQr5LbrtR7CV1ZDABJSb-1" vertex="1">
          <mxGeometry x="1280" y="297.44000000000005" width="150" height="22.03" as="geometry" />
        </mxCell>
        <mxCell id="AQr5LbrtR7CV1ZDABJSb-255" value="" style="strokeWidth=1;shadow=0;dashed=0;align=center;html=1;shape=mxgraph.mockup.graphics.rrect;rSize=0;strokeColor=none;fillColor=#aaddff;" parent="AQr5LbrtR7CV1ZDABJSb-1" vertex="1">
          <mxGeometry x="1057.93" y="253.38" width="222.07" height="22.03" as="geometry" />
        </mxCell>
        <mxCell id="AQr5LbrtR7CV1ZDABJSb-256" value="" style="strokeWidth=1;shadow=0;dashed=0;align=center;html=1;shape=mxgraph.mockup.graphics.rrect;rSize=0;strokeColor=none;fillColor=#aaddff;" parent="AQr5LbrtR7CV1ZDABJSb-1" vertex="1">
          <mxGeometry x="1455.3799999999999" y="340.94" width="118.17" height="22.03" as="geometry" />
        </mxCell>
        <mxCell id="AQr5LbrtR7CV1ZDABJSb-257" value="" style="strokeWidth=1;shadow=0;dashed=0;align=center;html=1;shape=mxgraph.mockup.graphics.rrect;rSize=0;strokeColor=none;fillColor=#aaddff;" parent="AQr5LbrtR7CV1ZDABJSb-1" vertex="1">
          <mxGeometry x="1540" y="381.76" width="230" height="22.03" as="geometry" />
        </mxCell>
        <mxCell id="1s03rZoKHBDmkKoN17LX-1" value="" style="strokeWidth=1;shadow=0;dashed=0;align=center;html=1;shape=mxgraph.mockup.graphics.rrect;rSize=0;strokeColor=none;fillColor=#aaddff;" vertex="1" parent="AQr5LbrtR7CV1ZDABJSb-1">
          <mxGeometry x="1100" y="447.86" width="100" height="22.03" as="geometry" />
        </mxCell>
        <mxCell id="1s03rZoKHBDmkKoN17LX-2" value="" style="strokeWidth=1;shadow=0;dashed=0;align=center;html=1;shape=mxgraph.mockup.graphics.rrect;rSize=0;strokeColor=none;fillColor=#aaddff;" vertex="1" parent="AQr5LbrtR7CV1ZDABJSb-1">
          <mxGeometry x="1730" y="443.85" width="110" height="22.03" as="geometry" />
        </mxCell>
      </root>
    </mxGraphModel>
  </diagram>
</mxfile>
